<?xml version="1.0" encoding="UTF-8" standalone="no"?>
<!-- Created with Inkscape (http://www.inkscape.org/) -->

<svg
   xmlns:dc="http://purl.org/dc/elements/1.1/"
   xmlns:cc="http://creativecommons.org/ns#"
   xmlns:rdf="http://www.w3.org/1999/02/22-rdf-syntax-ns#"
   xmlns:svg="http://www.w3.org/2000/svg"
   xmlns="http://www.w3.org/2000/svg"
   xmlns:sodipodi="http://sodipodi.sourceforge.net/DTD/sodipodi-0.dtd"
   xmlns:inkscape="http://www.inkscape.org/namespaces/inkscape"
   width="69.710075"
   height="49.027817"
   id="svg3621"
   version="1.1"
   inkscape:version="0.48.5 r10040"
   sodipodi:docname="aegir_logo_blue.svg"
   inkscape:export-filename="/home/ergonlogic/images/logos/aegir_logo_blue.png"
   inkscape:export-xdpi="90"
   inkscape:export-ydpi="90">
  <defs
     id="defs3623" />
  <sodipodi:namedview
     id="base"
     pagecolor="#ffffff"
     bordercolor="#666666"
     borderopacity="1.0"
     inkscape:pageopacity="0.0"
     inkscape:pageshadow="2"
     inkscape:zoom="1.2"
     inkscape:cx="230.24637"
     inkscape:cy="24.454565"
     inkscape:document-units="px"
     inkscape:current-layer="layer1"
     showgrid="false"
     inkscape:window-width="1364"
     inkscape:window-height="747"
     inkscape:window-x="0"
     inkscape:window-y="19"
     inkscape:window-maximized="0"
     fit-margin-top="-0.7"
     fit-margin-left="0"
     fit-margin-right="0"
     fit-margin-bottom="0" />
  <metadata
     id="metadata3626">
    <rdf:RDF>
      <cc:Work
         rdf:about="">
        <dc:format>image/svg+xml</dc:format>
        <dc:type
           rdf:resource="http://purl.org/dc/dcmitype/StillImage" />
        <dc:title></dc:title>
      </cc:Work>
    </rdf:RDF>
  </metadata>
  <g
     id="layer1"
     inkscape:label="Layer 1"
     inkscape:groupmode="layer"
     transform="translate(-3.7536272,-5.4267454)">
    <g
       style="fill:#0a1f36;fill-opacity:1"
       transform="matrix(1.0726552,0,0,1.1700569,-503.54496,-96.804764)"
       id="g6152">
      <g
         id="g6154"
         style="fill:#0a1f36;fill-opacity:1"
         transform="matrix(1.3824225,0,0,1.3824225,-193.58855,-49.517314)">
        <path
           inkscape:connector-curvature="0"
           sodipodi:nodetypes="ccsss"
           id="path6156"
           d="m 529.1538,129.33275 c 0,0 -47.01047,0 -47.01047,0 0,0 12.36511,-30.310618 12.36511,-30.310618 3.74986,0 -9.53598,19.427938 10.625,23.186068 21.84001,4.07111 24.02036,4.78138 24.02036,7.12455 z"
           style="fill:#0a1f36;fill-opacity:1;fill-rule:nonzero;stroke:none;stroke-width:5;marker:none;visibility:visible;display:inline;overflow:visible;enable-background:accumulate" />
        <path
           inkscape:connector-curvature="0"
           sodipodi:nodetypes="csccsc"
           id="path6158"
           d="m 494.4833,108.16112 c 0,0 -0.76978,7.94322 15.37954,8.62927 11.34287,0.47947 14.57914,0.71038 14.57914,0.71038 l 2.72193,6.44424 c 0,0 -0.2016,-0.3884 -18.92621,-2.69637 -16.35269,-2.01561 -13.7544,-13.08752 -13.7544,-13.08752 z"
           style="fill:#0a1f36;fill-opacity:1;fill-rule:nonzero;stroke:none;stroke-width:5;marker:none;visibility:visible;display:inline;overflow:visible;enable-background:accumulate" />
        <path
           inkscape:connector-curvature="0"
           sodipodi:nodetypes="cssszczs"
           id="path6160"
           d="m 495.32782,105.75061 c 1.67806,7.63874 16.57057,8.12275 16.04477,-0.42916 -0.35631,-5.795272 -7.07406,-5.19219 -5.5457,-2.06558 0,0 -2.56409,-1.1124 -2.56409,-1.1124 1.09343,-3.14548 10.97151,-5.705222 15.61906,2.89077 4.64755,8.59599 4.37112,9.65873 4.37112,9.65873 0,0 -3.91482,0.0126 -16.79835,-0.11501 -12.88296,-0.12761 -11.12681,-8.82735 -11.12681,-8.82735 z"
           style="fill:#0a1f36;fill-opacity:1;fill-rule:nonzero;stroke:none;stroke-width:5;marker:none;visibility:visible;display:inline;overflow:visible;enable-background:accumulate" />
        <path
           transform="matrix(0.8999532,0,0,0.8999532,50.390569,10.161106)"
           d="m 508.43824,103.49209 c 0,1.58927 -1.28836,2.87763 -2.87763,2.87763 -1.58927,0 -2.87763,-1.28836 -2.87763,-2.87763 0,-1.58927 1.28836,-2.87763 2.87763,-2.87763 1.58927,0 2.87763,1.28836 2.87763,2.87763 z"
           sodipodi:ry="2.8776281"
           sodipodi:rx="2.8776281"
           sodipodi:cy="103.49209"
           sodipodi:cx="505.56061"
           id="path6162"
           style="fill:#0a1f36;fill-opacity:1;fill-rule:nonzero;stroke:none;stroke-width:5;marker:none;visibility:visible;display:inline;overflow:visible;enable-background:accumulate"
           sodipodi:type="arc" />
      </g>
    </g>
  </g>
</svg>
